<svg width="100%" height="100%" viewBox="0 0 1440 320" xmlns="http://www.w3.org/2000/svg">
  <path fill="none" stroke="rgba(255,255,255,0.2)" stroke-width="2" d="M0,192 C120,160 240,96 360,112 C480,128 600,224 720,234.7 C840,245 960,171 1080,149.3 C1200,128 1320,160 1440,192" />
  <path fill="none" stroke="rgba(255,255,255,0.2)" stroke-width="2" d="M0,256 C120,224 240,128 360,144 C480,160 600,256 720,266.7 C840,277 960,203 1080,181.3 C1200,160 1320,192 1440,224" />
  <path fill="none" stroke="rgba(255,255,255,0.1)" stroke-width="2" d="M0,320 C120,288 240,192 360,208 C480,224 600,320 720,330.7 C840,341 960,267 1080,245.3 C1200,224 1320,256 1440,288" />
</svg>
